<svg xmlns="http://www.w3.org/2000/svg" viewBox="0 0 960 960" fill="none" aria-hidden="true">
  <path fill="currentColor" d="M68.13 735.84998c-18.4 0-34.35333-6.77997-47.86-20.33997-13.51333-13.55334-20.27-29.56335-20.27-48.03003l0-298.5c0-50.61999 9.67667-98.33002 29.03001-143.13 19.34667-44.80001 45.61999-83.97664 78.81999-117.52997 33.19333-33.55333 72.21334-59.99668 117.06-79.33002 44.84668-19.32667 92.60337-28.98999 143.27002-28.98999 50.66666 0 98.19001 9.65998 142.57001 28.97998 44.38669 19.32 82.91995 45.73004 115.59995 79.23004 32.67999 33.5 58.48999 72.63999 77.42999 117.41998 18.94665 44.78 28.41998 92.5633 28.41998 143.34998l0 417.52002c0 18.40002-6.77997 34.35333-20.33996 47.85999-13.55335 13.5133-29.56336 20.27001-48.03003 20.27001l-263.45993 0c-9.09333 0-16.76334-3.13336-23.01001-9.40002-6.25333-6.26666-9.38001-14.02997-9.38001-23.28998 0-9.26666 3.12668-16.92999 9.38001-22.98999 6.25332-6.06665 14.00332-9.10003 23.25-9.10003l263.21994 0 0-54-82.5 0c-18.96668 0-35.10334-6.65332-48.40998-19.95997-13.30664-13.30664-19.96002-29.44335-19.96002-48.41003l0-167.62997c0-18.96668 6.65338-35.10334 19.96002-48.41001 13.30664-13.30667 29.4433-19.95999 48.40998-19.95999l82.5 0 0-62.50003c0-82.03332-28.79999-152.64328-86.39997-211.82996-57.60669-59.18666-127.46332-88.78003-209.56997-88.78002-81.78666 0-152.18999 29.59336-211.21 88.78002-59.01333 59.18668-88.52002 129.79664-88.52002 211.82996l0 62.50003 82.74003 0c18.73333 0 34.77333 6.65332 48.11999 19.95999 13.34 13.30667 20.00998 29.44333 20.00998 48.41001l0 167.62997c0 18.96668-6.66998 35.10339-20.00998 48.41003-13.34666 13.30665-29.38666 19.95997-48.11999 19.95997l-82.74003 0z m0-68.37l82.74003 0 0-167.62997-82.74003 0 0 167.62997z m513.19996 0l82.5 0 0-167.62997-82.5 0 0 167.62997z"/>
</svg>
