<svg xmlns="http://www.w3.org/2000/svg" viewBox="0 0 960 960" fill="none" aria-hidden="true">
  <path fill="currentColor" d="M185.98001 559.01996c8 0 15-2.95996 21-8.87995 6-5.91998 9-12.96008 9-21.12005 0-8-3-15-9-21-6-6-13-9-21-9-8 0-15 3-21 9-6 6-9 13-9 21 0 8.15997 3 15.20007 9 21.12005 6 5.91999 13 8.87995 21 8.87995z m0-162.79999c8 0 15-3 21-9 6-6 9-13 9-21 0-8-3-15-9-21-6-6-13-9-21-9-8 0-15 3-21 9-6 6-9 13-9 21 0 8 3 15 9 21 6 6 13 9 21 9z m0-163.03998c8 0 15-2.96 21-8.88 6-5.92 9-12.95999 9-21.12 0-8-3-15-9-21-6-6-13-9-21-9-8 0-15 3-21 9-6 6-9 13-9 21 0 8.16001 3 15.2 9 21.12 6 5.92 13 8.88 21 8.88z m162 325.83997l183.99997 0c8.5 0 15.62665-2.88996 21.38001-8.66998 5.74664-5.78669 8.61999-12.91333 8.61999-21.38001 0-8.47333-2.87335-15.58331-8.61999-21.32999-5.75336-5.74667-12.88001-8.62002-21.38001-8.62002l-183.99997 0c-8.5 0-15.62332 2.93335-21.36999 8.80002-5.75333 5.86001-8.63001 13.02664-8.63001 21.49997 0 8.46667 2.87668 15.53332 8.63001 21.20001 5.74667 5.66669 12.86999 8.5 21.36999 8.5z m0-162.79999l183.99997 0c8.5 0 15.62665-2.89331 21.38001-8.67999 5.74664-5.78 8.61999-12.94666 8.61999-21.5 0-8.54666-2.87335-15.65335-8.61999-21.32001-5.75336-5.66666-12.88001-8.5-21.38001-8.5l-183.99997 0c-8.5 0-15.62332 2.89331-21.36999 8.67999-5.75333 5.78-8.63001 12.94666-8.63001 21.5 0 8.54666 2.87668 15.65335 8.63001 21.32001 5.74667 5.66666 12.86999 8.5 21.36999 8.5z m0-163.03998l183.99997 0c8.5 0 15.62665-2.89332 21.38001-8.67999 5.74664-5.78 8.61999-12.90668 8.61999-21.38 0-8.46666-2.87335-15.57334-8.61999-21.32001-5.75336-5.74668-12.88001-8.62-21.38001-8.62l-183.99997 0c-8.5 0-15.62332 2.92998-21.36999 8.78998-5.75333 5.86667-8.63001 13.03334-8.63001 21.5 0 8.47333 2.87668 15.54335 8.63001 21.21002 5.74667 5.66667 12.86999 8.5 21.36999 8.5z m-279.85001 499.01996c-18.4 0-34.35333-6.75665-47.86-20.26996-13.51333-13.50665-20.27-29.46002-20.27-47.86004l0-595.69995c0-18.46667 6.75666-34.4767 20.27-48.03003 13.50667-13.56 29.46-20.33997 47.86-20.33997l595.69996 0c18.46667 0 34.47668 6.77997 48.03003 20.33997 13.55999 13.55333 20.33996 29.56336 20.33996 48.03003l0 595.69995c0 18.40002-6.77997 34.35339-20.33996 47.86004-13.55335 13.51331-29.56336 20.26996-48.03003 20.26996l-595.69996 0z m0-68.13l595.69996 0 0-595.69995-595.69996 0 0 595.69995z"/>
</svg>
