<svg xmlns="http://www.w3.org/2000/svg" viewBox="0 0 42 42" fill="none" aria-hidden="true">
  <path fill="#000000" d="M12.5471 38.5713C11.6782 38.5713 10.9375 38.262 10.325 37.6434C9.7125 37.0247 9.40625 36.281 9.40625 35.4121C9.40625 34.5432 9.71556 33.8026 10.3342 33.1901C10.9528 32.5776 11.6966 32.2713 12.5654 32.2713C13.4343 32.2713 14.175 32.5806 14.7875 33.1992C15.4 33.8182 15.7063 34.5619 15.7063 35.4305C15.7063 36.2994 15.3969 37.0401 14.7783 37.6526C14.1597 38.2651 13.4159 38.5713 12.5471 38.5713ZM30.0471 38.5713C29.1782 38.5713 28.4375 38.262 27.825 37.6434C27.2125 37.0247 26.9063 36.281 26.9063 35.4121C26.9063 34.5432 27.2156 33.8026 27.8342 33.1901C28.4528 32.5776 29.1966 32.2713 30.0654 32.2713C30.9343 32.2713 31.675 32.5806 32.2875 33.1992C32.9 33.8182 33.2063 34.5619 33.2063 35.4305C33.2063 36.2994 32.8969 37.0401 32.2783 37.6526C31.6597 38.2651 30.9159 38.5713 30.0471 38.5713ZM10.4799 9.69631L15.1148 19.3156H27.6833L32.9429 9.69631H10.4799ZM9.04181 6.84119H34.5104C35.2726 6.84119 35.8524 7.18579 36.2499 7.875C36.6475 8.56421 36.6503 9.25692 36.2583 9.95312L30.5301 20.2812C30.1952 20.8491 29.7649 21.3077 29.239 21.6571C28.7134 22.0065 28.1313 22.1812 27.4925 22.1812H14.3111L11.9341 26.6162H31.8938C32.2983 26.6162 32.6374 26.7536 32.9109 27.0283C33.1845 27.3028 33.3213 27.6431 33.3213 28.0494C33.3213 28.4554 33.1845 28.7939 32.9109 29.0649C32.6374 29.3358 32.2983 29.4713 31.8938 29.4713H12.1188C10.838 29.4713 9.9174 29.0421 9.35681 28.1837C8.79623 27.3251 8.80702 26.368 9.38919 25.3124L12.1577 20.2125L5.57069 6.24006H3.54375C3.13921 6.24006 2.80015 6.10269 2.52656 5.82794C2.25298 5.55348 2.11619 5.2131 2.11619 4.80681C2.11619 4.40081 2.25298 4.06233 2.52656 3.79137C2.80015 3.52042 3.13921 3.38494 3.54375 3.38494H6.47675C6.77425 3.38494 7.04404 3.458 7.28613 3.60412C7.52821 3.74996 7.70452 3.95617 7.81506 4.22275L9.04181 6.84119Z"/>
</svg>
